<svg xmlns="http://www.w3.org/2000/svg" width="560" height="80" fill="none"><g clip-path="url(#a)"><path fill="#353777" d="M80 40c0 22.104-17.896 40-40 40V60.19c11.052 0 20-9.184 20-20.19h20Z"/><path fill="#FAF6E7" fill-rule="evenodd" d="M40 20c11.052 0 20-8.948 20-20H40v20Z" clip-rule="evenodd"/><path fill="#FEB602" fill-rule="evenodd" d="M540 40c-22.104 0-40 17.896-40 40h40V40Z" clip-rule="evenodd"/><path fill="#FAF6E7" fill-rule="evenodd" d="M120 80H80V40l40 40Z" clip-rule="evenodd"/><path fill="#353777" fill-rule="evenodd" d="M480 0v40h-40l40-40Z" clip-rule="evenodd"/><path fill="#FAF6E7" fill-rule="evenodd" d="M340 80h-40V40l40 40Z" clip-rule="evenodd"/><path fill="#17D1C6" fill-rule="evenodd" d="M240 40h-40V0l40 40Z" clip-rule="evenodd"/><path fill="#17D1C6" d="M120 40h40v40h-40V40Z"/><path fill="#FAF6E7" d="m160 60 7.991-4.974-2.132-9.167 9.167 2.132L180 40l4.974 7.99 9.167-2.131-2.132 9.167L200 60l-7.991 4.974 2.132 9.167-9.167-2.132L180 80l-4.974-7.99-9.167 2.131 2.132-9.167L160 60Z"/><path fill="#FEB602" d="m320 20 7.991-4.974-2.132-9.167 9.167 2.132L340 0l4.974 7.99 9.167-2.131-2.132 9.167L360 20l-7.991 4.974 2.132 9.167-9.167-2.132L340 40l-4.974-7.99-9.167 2.131 2.132-9.167L320 20Z"/><path fill="#17D1C6" d="M360 0c22.13 0 40 18.035 40 40.046C400 62.058 382.037 80 360 80V0Z"/><path fill="#353777" d="M440 80c-22.104 0-40-17.896-40-40h19.81c0 11.052 9.184 20 20.19 20v20Z"/><path fill="#17D1C6" fill-rule="evenodd" d="M460 60c0-11.052-8.948-20-20-20v20h20Z" clip-rule="evenodd"/><path fill="#353777" fill-rule="evenodd" d="M160 40c0-22.104-17.896-40-40-40v40h40ZM240 80c22.104 0 40-17.896 40-40h-40v40Z" clip-rule="evenodd"/><path fill="#FEB602" d="M240 40c0-22.104 17.896-40 40-40v19.81c-11.052 0-20 9.184-20 20.19h-20Z"/><path fill="#FAF6E7" d="M280 0c22.104 0 40 17.896 40 40h-19.81c0-11.052-9.184-20-20.19-20V0Z"/><path fill="#FEB602" d="M185.656 14.344 180 0l-5.656 14.344L160 20l14.344 5.657L180 40l5.656-14.343L200 20l-14.344-5.656Z"/><path fill="#FAF6E7" d="M485.656 54.343 480 40l-5.656 14.343L460 60l14.344 5.656L480 80l5.656-14.344L500 60l-14.344-5.657Z"/><path fill="#FEB602" fill-rule="evenodd" d="M100 40c0 11.052 8.948 20 20 20V40h-20ZM280 40c0 11.052 8.948 20 20 20V40h-20Z" clip-rule="evenodd"/><path fill="#FEB602" d="M40 50c-5.523 0-10-4.477-10-10s4.477-10 10-10 10 4.477 10 10-4.477 10-10 10Z"/><path fill="#353777" d="M340 70c-5.523 0-10-4.477-10-10s4.477-10 10-10 10 4.477 10 10-4.477 10-10 10ZM550 60c-5.523 0-10-4.477-10-10s4.477-10 10-10 10 4.477 10 10-4.477 10-10 10Z"/><path fill="#FEB602" d="M230 80c-5.523 0-10-4.477-10-10s4.477-10 10-10 10 4.477 10 10-4.477 10-10 10Z"/><path fill="#17D1C6" d="M40 80C17.896 80 0 62.104 0 40h19.81c0 11.052 9.184 20 20.19 20v20ZM540 40c-22.104 0-40-17.896-40-40h19.81c0 11.052 9.184 20 20.19 20v20Z"/><path fill="#FEB602" d="M60 20C60 8.948 68.948 0 80 0v40H60V20Z"/><path fill="#353777" fill-rule="evenodd" d="M220 40h-20v20l20-20Z" clip-rule="evenodd"/><path fill="#FEB602" fill-rule="evenodd" d="M500 20h-20v20l20-20ZM440 12v28h-40V13l10.452 9.502L420 12l10.476 10.476L440 12Zm-13.165 18.023L420 23.188l-6.835 6.835L420 36.858l6.835-6.835Z" clip-rule="evenodd"/></g><defs><clipPath id="a"><path fill="#fff" d="M0 0h560v80H0z"/></clipPath></defs></svg>