<svg xmlns="http://www.w3.org/2000/svg" width="560" height="80" fill="none"><g clip-path="url(#a)"><path fill="#FAF6E7" d="M430 80c-5.523 0-10-4.477-10-10s4.477-10 10-10 10 4.477 10 10-4.477 10-10 10Z"/><path fill="#FEB602" fill-rule="evenodd" d="M480 40c22.104 0 40-17.896 40-40h-40v40Z" clip-rule="evenodd"/><path fill="#17D1C6" fill-rule="evenodd" d="M520 80c0-22.104-17.896-40-40-40v40h40Z" clip-rule="evenodd"/><path fill="#353777" d="M210 40c0 22.104-17.896 40-40 40V60.19c11.052 0 20-9.184 20-20.19h20Z"/><path fill="#17D1C6" d="M320 40c0-22.104 17.896-40 40-40v19.81c-11.052 0-20 9.184-20 20.19h-20Z"/><path fill="#FAF6E7" d="M170 80c-22.104 0-40-17.896-40-40h19.81c0 11.052 9.184 20 20.19 20v20ZM520 40l7.991-4.974-2.132-9.167 9.167 2.132L540 20l4.974 7.99 9.167-2.131-2.132 9.167L560 40l-7.991 4.974 2.132 9.167-9.167-2.132L540 60l-4.974-7.99-9.167 2.131 2.132-9.167L520 40Z"/><path fill="#17D1C6" d="m10 60 7.99-4.974-2.131-9.167 9.167 2.132L30 40l4.974 7.99 9.167-2.131-2.132 9.167L50 60l-7.99 4.974 2.131 9.167-9.167-2.132L30 80l-4.974-7.99-9.167 2.131 2.132-9.167L10 60Z"/><path fill="#FAF6E7" d="m360 20 7.991-4.974-2.132-9.167 9.167 2.132L380 0l4.974 7.99 9.167-2.131-2.132 9.167L400 20l-7.991 4.974 2.132 9.167-9.167-2.132L380 40l-4.974-7.99-9.167 2.131 2.132-9.167L360 20Z"/><path fill="#FEB602" fill-rule="evenodd" d="M380 60c0-11.052-8.948-20-20-20v20h20Z" clip-rule="evenodd"/><path fill="#17D1C6" d="M380 40h40v40h-40V40Z"/><path fill="#FEB602" d="M130 0h40v40h-40V0ZM305.656 54.343 300 40l-5.656 14.343L280 60l14.344 5.656L300 80l5.656-14.344L320 60l-14.344-5.657Z"/><path fill="#17D1C6" d="M115.656 34.343 110 20l-5.656 14.343L90 40l14.344 5.657L110 60l5.656-14.343L130 40l-14.344-5.657Z"/><path fill="#353777" fill-rule="evenodd" d="M270 80h-40V40l40 40ZM90 40v40H50l40-40ZM360 80h-40V40l40 40Z" clip-rule="evenodd"/><path fill="#FAF6E7" fill-rule="evenodd" d="M290 80h-20V60l20 20Z" clip-rule="evenodd"/><path fill="#353777" fill-rule="evenodd" d="M190 0h-20v20l20-20ZM0 20v20h20L0 20Z" clip-rule="evenodd"/><path fill="#17D1C6" fill-rule="evenodd" d="M230 0v40h-40l40-40Z" clip-rule="evenodd"/><path fill="#FAF6E7" fill-rule="evenodd" d="M310 40c0-22.104-17.896-40-40-40v40h40ZM90 40C90 17.896 72.104 0 50 0v40h40Z" clip-rule="evenodd"/><path fill="#FEB602" fill-rule="evenodd" d="M240 30c11.052 0 20-8.948 20-20h-20v20ZM110 80c11.052 0 20-8.948 20-20h-20v20ZM230 60c-11.052 0-20 8.948-20 20h20V60Z" clip-rule="evenodd"/><path fill="#FEB602" d="M60 60c-5.523 0-10-4.477-10-10s4.477-10 10-10 10 4.477 10 10-4.477 10-10 10Z"/><path fill="#353777" d="M480 80c-22.104 0-40-17.896-40-40h19.81c0 11.052 9.184 20 20.19 20v20Z"/><path fill="#FEB602" fill-rule="evenodd" d="M460 12v28h-40V13l10.452 9.502L440 12l10.476 10.476L460 12Zm-13.165 18.023L440 23.188l-6.835 6.835L440 36.858l6.835-6.835Z" clip-rule="evenodd"/></g><defs><clipPath id="a"><path fill="#fff" d="M0 0h560v80H0z"/></clipPath></defs></svg>